<?xml version="1.0" encoding="UTF-8" standalone="no"?>
<!--
   This SVG is NOT covered by any other licence in the project. It is
   copyrighted by Bentonville Schools. You can replace it with your own SVG
   favicon.
-->
<svg
   xmlns:dc="http://purl.org/dc/elements/1.1/"
   xmlns:cc="http://creativecommons.org/ns#"
   xmlns:rdf="http://www.w3.org/1999/02/22-rdf-syntax-ns#"
   xmlns:svg="http://www.w3.org/2000/svg"
   xmlns="http://www.w3.org/2000/svg"
   xmlns:sodipodi="http://sodipodi.sourceforge.net/DTD/sodipodi-0.dtd"
   xmlns:inkscape="http://www.inkscape.org/namespaces/inkscape"
   inkscape:export-ydpi="10.520548"
   inkscape:export-xdpi="10.520548"
   inkscape:export-filename="L:\Work\scratch\tmp\logo.png"
   width="160"
   height="160"
   viewBox="0 0 42.333329 42.333334"
   version="1.1"
   id="svg8"
   sodipodi:docname="logo-with-bg.svg"
   inkscape:version="1.0 (4035a4fb49, 2020-05-01)">
  <defs
     id="defs2" />
  <sodipodi:namedview
     inkscape:guide-bbox="true"
     showguides="true"
     viewbox-width="32"
     units="px"
     id="base"
     pagecolor="#ffffff"
     bordercolor="#666666"
     borderopacity="1.0"
     inkscape:pageopacity="0.0"
     inkscape:pageshadow="2"
     inkscape:zoom="4"
     inkscape:cx="12.293616"
     inkscape:cy="78.731092"
     inkscape:document-units="mm"
     inkscape:current-layer="layer1"
     inkscape:document-rotation="0"
     showgrid="false"
     fit-margin-top="0"
     fit-margin-left="0"
     fit-margin-right="0"
     fit-margin-bottom="0"
     inkscape:window-width="1920"
     inkscape:window-height="1017"
     inkscape:window-x="-8"
     inkscape:window-y="-8"
     inkscape:window-maximized="1" />
  <metadata
     id="metadata5">
    <rdf:RDF>
      <cc:Work
         rdf:about="">
        <dc:format>image/svg+xml</dc:format>
        <dc:type
           rdf:resource="http://purl.org/dc/dcmitype/StillImage" />
        <dc:title></dc:title>
      </cc:Work>
    </rdf:RDF>
  </metadata>
  <g
     inkscape:label="Layer 1"
     inkscape:groupmode="layer"
     id="layer1"
     transform="translate(179.72488,-10.141126)">
    <path
       sodipodi:nodetypes="ssszs"
       d="m -140.59529,34.483748 c -3.97507,12.113917 -11.46033,17.645064 -17.26407,17.793229 -6.19769,0.158222 -14.80535,-5.70289 -18.85156,-17.793229 -6.94531,-20.75308 -2.38685,-23.971395 18.85156,-24.14323 21.23841,-0.171835 23.87865,3.985459 17.26407,24.14323 z"
       style="fill:#ffffff;fill-opacity:1;stroke:none;stroke-width:0.1"
       id="path835" />
    <g
       id="g1421"
       transform="matrix(0.30591165,0,0,0.30591165,-186.98241,-24.662471)">
      <path
         sodipodi:nodetypes="ssscscssssssssscs"
         id="path859"
         d="m 68.848337,232.15825 c -2.110999,-1.78375 -3.372882,-2.9382 -5.4887,-5.02141 -4.148801,-4.08487 -7.136796,-7.66331 -10.308031,-12.34499 l -1.029489,-1.45821 -0.799072,-1.86834 c -0.09383,-0.21937 1.07537,-3.02254 1.712146,-4.32641 11.187923,-22.90843 25.794896,-41.86813 47.287559,-57.18925 10.19158,-7.26511 23.78078,-12.86163 33.98613,-16.68842 5.52307,-2.07104 11.57715,-1.9361 15.88466,-2.8653 2.11451,-0.45614 2.83086,-0.40806 3.53857,-0.29836 0.0158,0.002 -0.49906,0.20406 -0.90295,0.38699 -2.89585,1.31157 -8.15101,4.39616 -12.84168,7.53758 -14.08142,9.43058 -27.25121,21.44843 -38.18874,34.84843 -10.872762,13.32065 -19.545821,27.93807 -25.818025,43.51325 -2.04145,5.06935 -3.965962,10.61182 -5.357182,15.42834 l -0.409002,1.416 z"
         style="fill:#198a98;stroke-width:0.0846667" />
      <path
         sodipodi:nodetypes="ssscssssssccssscsss"
         id="path961"
         d="m 51.263415,212.12935 c -2.104839,-3.40622 -4.191972,-7.4067 -5.944638,-11.39428 -0.707244,-1.60908 -2.070107,-5.00557 -2.577361,-6.42321 l -0.339087,-0.94766 1.504071,-2.26967 c 5.635893,-8.50468 11.387407,-15.50607 18.522356,-22.54747 5.628499,-5.55471 11.422275,-10.39167 17.853396,-14.905 19.136763,-13.43008 42.044898,-22.13386 62.526338,-23.75641 2.1712,-0.17201 7.27312,-0.19845 8.89,-0.0461 1.82186,0.17169 2.05187,0.20435 1.93736,0.27512 -0.0599,0.037 -0.13456,0.0515 -0.16587,0.0322 -0.20199,-0.12483 -4.21797,0.41565 -6.36162,0.85617 -11.72142,2.40872 -26.11434,8.93937 -39.64821,17.98999 -16.10111,10.76744 -30.099511,24.31407 -41.203969,39.8742 -4.479362,6.2767 -8.687181,13.25632 -12.073269,20.02623 -1.081259,2.16179 -2.080525,4.28523 -2.080594,4.42127 -0.03744,0.0788 0,0 -0.03744,0.0788 -0.0048,0.0102 -0.362638,-0.55399 -0.801463,-1.26414 z"
         style="fill:#26979c;stroke-width:0.0846667" />
      <path
         id="path871"
         d="m 35.344068,165.98598 c -0.02444,-0.19791 -0.313113,-2.20768 -0.641503,-4.46617 -1.206594,-8.29829 -1.816205,-13.50311 -2.212159,-18.88726 -0.209834,-2.8533 -0.390348,-7.7678 -0.289002,-7.86809 0.04111,-0.0407 0.589089,-0.36636 1.217739,-0.72373 12.400465,-7.04946 30.213903,-12.09698 47.921333,-13.57875 4.287557,-0.35879 5.183531,-0.38653 12.446,-0.38539 6.998744,0.001 8.434134,0.0391 12.954004,0.3426 7.13279,0.47901 14.13761,1.4482 20.15066,2.78805 3.01716,0.6723 6.858,1.69885 6.858,1.83296 0,0.0401 -0.29527,0.0733 -0.65616,0.0737 -1.43699,0.002 -5.65696,0.34617 -8.91117,0.72759 -26.597441,3.11748 -54.874517,14.6897 -78.20352,32.00431 -3.332942,2.47369 -6.665196,5.16386 -9.933857,8.01974 -0.302341,0.26416 -0.573611,0.48029 -0.602822,0.48029 -0.02921,0 -0.07311,-0.16192 -0.09754,-0.35983 z"
         style="fill:#032d49;stroke-width:0.0846667" />
      <path
         id="path857"
         d="m 95.522394,245.53031 c 0.02452,-0.17462 0.141079,-1.1557 0.259015,-2.18016 3.448203,-29.95318 15.627211,-60.15419 33.016381,-81.87267 2.63796,-3.29472 4.77573,-5.70039 7.70102,-8.66611 4.65065,-4.71492 8.83163,-8.21915 13.66664,-11.45448 l 1.74469,-1.16745 0.0265,2.05035 c 0.0146,1.1277 -0.0153,2.98381 -0.0664,4.12469 -1.36761,30.54821 -9.38406,55.63519 -23.71366,74.21033 -7.58335,9.83016 -17.07387,17.80521 -27.24917,22.89798 -1.969069,0.98552 -5.105161,2.37502 -5.360417,2.37502 -0.03807,0 -0.04915,-0.14287 -0.02463,-0.3175 z"
         style="fill:#032d49;stroke-width:0.0846667" />
    </g>
  </g>
</svg>
