<!--
   This SVG is NOT covered by any other licence in the project. It is
   copyrighted by Bentonville Schools. You can replace it with your own SVG
   logo. Do not include an XML Declaration. Be sure to set the id of the
   root SVG element to "logo"
-->
<svg
   viewBox="0 0 1331 145"
   height="146"
   width="1331"
   id="logo"
   version="1.1">
   <path
      id="path2556"
      d="M 73.436154,143.92 C 77.09831,110.47451 90.289459,76.413494 109.40038,51.056336 117.1227,40.810045 126.61424,31.512868 135.73434,25.261628 137.26022,24.215733 138.61498,23.36 138.74491,23.36 c 0.34087,0 -0.0903,11.40753 -0.66527,17.6 -2.37631,25.594182 -9.04492,47.667789 -19.72187,65.28084 -4.71033,7.77031 -8.898,13.10186 -15.474,19.70079 -6.934823,6.959 -11.834874,10.78091 -19.36377,15.10324 -2.908342,1.66967 -9.558048,4.87513 -10.113427,4.87513 -0.104176,0 -0.09087,-0.9 0.02957,-2 z M 41.078576,128.73023 C 28.62532,117.89497 20.025789,105.56125 13.598049,89.316787 l -1.694816,-4.283209 1.088808,-1.70208 C 20.681366,71.311146 32.325133,58.013059 43.555459,48.425696 66.443245,28.886323 95.541565,15.594961 123.36,11.973039 c 4.39653,-0.572422 16.30928,-0.794094 17.0799,-0.317822 0.28782,0.177884 -0.79935,0.901291 -3.39374,2.258198 C 122.16878,21.694511 103.27183,36.587571 89.73535,51.2 69.102909,73.47241 53.99536,99.362237 45.690982,126.6789 c -0.754038,2.48036 -1.461622,4.5123 -1.572406,4.51542 -0.110784,0.003 -1.478784,-1.10572 -3.04,-2.46409 z M 304.8,127.79282 c -9.41246,-1.09114 -15.35987,-3.73729 -20.52487,-9.132 -4.70087,-4.90995 -7.55246,-11.16725 -8.94164,-19.62082 -0.72039,-4.383808 -0.71147,-12.986339 0.0181,-17.44 1.74574,-10.657133 6.90351,-19.345123 14.56844,-24.539741 7.37161,-4.99583 17.65027,-6.689478 26.68919,-4.397661 7.26118,1.841069 13.19027,7.458016 15.72665,14.898711 1.59165,4.669184 2.20131,11.655549 1.37584,15.765881 -0.29283,1.45826 -0.57763,1.993591 -1.39018,2.61337 L 331.29958,86.72 H 308.6898 286.08 l 0.001,2.64 c 0.002,3.510954 0.74553,8.026013 1.94483,11.80529 2.09825,6.61209 6.12512,11.54588 11.54689,14.14745 4.07443,1.95507 6.77066,2.50835 12.14339,2.49189 7.06909,-0.0217 11.66808,-0.96226 16.80527,-3.43711 3.13699,-1.51125 4.18051,-1.7148 4.5016,-0.87806 0.60857,1.58594 -5.15085,7.81545 -9.68643,10.47704 -5.15443,3.02474 -12.45392,4.53148 -18.53684,3.82632 z M 322.46419,75.92 c -0.10624,-2.521907 -0.41139,-5.219533 -0.71491,-6.32 -1.76708,-6.406685 -5.55743,-9.829709 -11.87804,-10.726922 -4.8129,-0.68319 -10.38789,0.446317 -14.1645,2.869767 -4.62021,2.964777 -8.13269,9.533728 -8.87006,16.588585 L 286.62883,80.32 h 18.01034 18.01033 z m 122,51.74051 c -5.8488,-0.86112 -9.74352,-4.47519 -11.16189,-10.35757 -0.8078,-3.35022 -0.98163,-10.64739 -0.77241,-32.42294 l 0.21293,-22.16 H 426.93139 421.12 v -2.485648 -2.485648 l 2.11507,-0.554736 c 4.73898,-1.242944 8.4768,-3.859011 9.98739,-6.990074 1.004,-2.081072 2.19831,-7.013353 2.66004,-10.985324 L 436.27523,35.84 h 3.46237 3.4624 v 9.28 9.28 h 9.12 9.12 v 4.16 4.16 h -9.1505 -9.15052 l 0.15788,23.92 c 0.11005,16.67279 0.27264,24.44837 0.53664,25.66394 1.05716,4.86786 3.7234,6.7417 9.57735,6.73106 2.94013,-0.005 5.25376,-0.45507 7.94573,-1.54447 l 1.67657,-0.67849 0.45757,0.71398 c 0.25165,0.39269 0.79158,1.40964 1.19978,2.2599 l 0.7422,1.54592 -1.11635,0.94214 c -5.09408,4.29908 -12.88329,6.41255 -19.85216,5.38653 z m 52.81626,0.001 c -8.34202,-1.04416 -14.76087,-4.12191 -19.90237,-9.54294 -5.9825,-6.30773 -8.76422,-14.04452 -9.12362,-25.375372 -0.20032,-6.314649 0.15812,-10.205468 1.37114,-14.884576 4.47459,-17.260182 19.5665,-27.788803 37.34461,-26.052864 8.50115,0.830093 14.7592,3.476813 19.75225,8.353834 3.67776,3.592269 5.75712,6.918122 7.60263,12.16 2.67837,7.607536 3.27603,18.464688 1.4919,27.102147 -3.05046,14.768291 -12.17187,24.708241 -25.35488,27.630191 -3.29481,0.73028 -9.81014,1.03158 -13.18166,0.60958 z m 11.00883,-7.33406 c 3.46624,-0.88651 6.08419,-2.36281 8.51072,-4.79931 2.5671,-2.57764 3.94272,-4.88133 5.31638,-8.90301 1.77914,-5.20881 2.18532,-8.240936 2.19504,-16.385538 0.005,-4.366746 -0.15584,-8.270339 -0.40924,-9.92 -1.55495,-10.12239 -5.35037,-16.619664 -11.39764,-19.511219 -3.2968,-1.576391 -5.59417,-2.056701 -9.78454,-2.045642 -11.54493,0.03046 -19.0048,7.293616 -21.48336,20.916861 -0.6967,3.829347 -0.5945,16.600563 0.16515,20.639998 2.18416,11.61416 7.49357,18.31492 15.97194,20.15746 3.05568,0.66407 7.99901,0.59632 10.91555,-0.1496 z M 822.72,127.66256 C 807.87178,125.81075 798.50346,116.8486 795.14179,101.28 c -0.82409,-3.816534 -1.14633,-13.559875 -0.59414,-17.964829 1.69005,-13.48168 8.63453,-23.824499 19.30742,-28.755689 6.60138,-3.050023 14.59424,-3.744589 21.90131,-1.903194 4.38362,1.104675 7.09399,2.645584 10.35645,5.887891 2.29936,2.285146 2.99837,3.236605 4.24317,5.775821 0.81968,1.672 1.78864,4.192 2.15322,5.6 0.8528,3.293517 1.18128,10.211901 0.63104,13.290893 -0.35648,1.994595 -0.49495,2.257165 -1.50471,2.852941 -1.09296,0.644857 -1.5015,0.656166 -23.70278,0.656166 h -22.59066 l 0.19664,3.6 c 0.89267,16.34263 8.81955,26.19222 22.06275,27.41423 3.97783,0.36705 10.33082,-0.1129 14.07149,-1.06307 1.71213,-0.43491 4.5393,-1.46163 6.28256,-2.28162 3.39149,-1.59526 4.30208,-1.70134 4.47005,-0.52071 0.14125,0.99274 -1.14704,2.87468 -3.74909,5.47671 -3.82944,3.82945 -8.48985,6.47921 -13.53478,7.69546 -3.1345,0.75568 -8.99501,1.04892 -12.42173,0.62156 z m 19.2,-50.876051 c 0,-10.828378 -4.26032,-16.819952 -12.75994,-17.945203 -6.71734,-0.8893 -13.5631,1.425187 -17.49126,5.913616 -2.64506,3.022345 -4.88694,8.630688 -5.45418,13.644377 L 805.99734,80.32 H 823.95866 841.92 Z m 58.88,50.902601 c -8.2769,-0.81554 -15.63091,-3.3862 -18.37443,-6.42295 -2.69075,-2.97833 -3.43584,-5.97218 -3.50071,-14.06616 l -0.0449,-5.6 2.59562,-0.0922 2.59561,-0.0922 1.03373,2.97223 c 2.34096,6.73093 5.11984,10.26997 9.93504,12.65281 4.64723,2.29971 6.90627,2.756 13.76,2.77929 5.35226,0.0182 6.14938,-0.0519 8.31194,-0.73094 8.16256,-2.56302 12.24195,-7.69351 12.25209,-15.40894 0.007,-5.289741 -1.24278,-8.59568 -4.42765,-11.712797 -3.16652,-3.099155 -7.33324,-5.50896 -19.07686,-11.033049 -8.35942,-3.932208 -11.36074,-5.639687 -14.93357,-8.495876 -4.50089,-3.598073 -7.80525,-8.645171 -9.19094,-14.038278 -0.86951,-3.384182 -0.80519,-11.282323 0.11929,-14.647571 2.57092,-9.358311 9.88919,-16.107877 20.3722,-18.788973 3.76275,-0.962354 6.904,-1.283456 12.55558,-1.283456 5.88314,0 10.47267,0.556132 14.70058,1.781337 3.26371,0.94578 4.78582,1.691676 5.93699,2.909356 1.27107,1.344521 1.54035,2.372045 1.54035,5.877899 0,3.376579 -1.11856,13.077981 -1.55862,13.518042 -0.14487,0.14486 -1.3257,0.220627 -2.62407,0.168374 l -2.3607,-0.09501 -0.42029,-2.525722 c -1.32614,-7.968953 -4.332,-11.670288 -10.97917,-13.519396 -2.93357,-0.816063 -12.0495,-0.835257 -15.01715,-0.03162 -3.30525,0.895057 -6.3719,2.559322 -8.29379,4.501015 -3.49312,3.529098 -4.67706,6.603011 -4.64339,12.055722 0.0189,3.048502 0.1502,4.009478 0.7654,5.6 2.47924,6.409507 7.4898,10.238774 21.50311,16.433507 10.74985,4.75208 16.42051,8.213629 20.60025,12.57503 2.95024,3.07848 3.93488,4.630352 5.16896,8.146615 0.84045,2.394736 0.88647,2.82168 0.89277,8.284848 0.006,5.072693 -0.0811,6.063313 -0.72931,8.301893 -3.00176,10.36701 -11.56998,17.36792 -23.90541,19.53256 -3.4848,0.61152 -10.83721,0.86134 -14.55859,0.49466 z m 76.49859,-0.0481 c -10.51293,-1.21807 -19.0623,-7.46084 -23.37197,-17.0663 -4.70892,-10.49533 -4.95609,-25.314523 -0.59971,-35.959582 3.33085,-8.139126 9.89632,-14.924912 17.57283,-18.162448 4.6232,-1.949818 6.92493,-2.408458 13.0521,-2.60071 12.12333,-0.380397 19.53886,2.11511 20.87166,7.023788 0.4482,1.650772 0.01,5.923344 -1.0837,10.514109 l -0.7156,3.010093 -2.3923,0.09203 -2.39232,0.09202 -0.57219,-2.545699 c -1.16966,-5.203984 -3.87776,-8.948122 -7.42739,-10.268816 -2.65309,-0.987127 -7.41162,-1.217901 -11.04,-0.535408 -3.30445,0.621561 -7.16198,2.455856 -9.5007,4.517661 -8.6601,7.634768 -11.16084,27.661843 -4.99562,40.007542 3.10269,6.21309 8.3463,10.44712 14.68454,11.85725 3.2202,0.71642 9.43127,0.49977 13.0226,-0.45425 3.12268,-0.82953 7.08889,-2.68668 9.95578,-4.66169 l 2.2065,-1.52014 1.6988,1.86975 c 0.9343,1.02836 1.7053,1.97933 1.7134,2.11326 0.01,0.13393 -1.0862,1.39575 -2.4316,2.80406 -7.59108,7.94544 -16.88013,11.19143 -28.25511,9.87348 z m 36.59471,0.0656 c -0.073,-0.0733 -0.1333,-1.30948 -0.1333,-2.74699 v -2.61364 l 3.3952,-0.37073 c 1.8674,-0.2039 3.9698,-0.54288 4.6721,-0.75329 2.5207,-0.75521 2.3212,2.4981 2.4292,-39.60785 0.094,-36.571296 -0.082,-46.065821 -0.9103,-49.044234 -0.1819,-0.654533 -0.6813,-1.606616 -1.1097,-2.115738 -0.8106,-0.963383 -4.2401,-2.896312 -6.3165,-3.560177 l -1.2,-0.383654 v -1.85721 -1.857209 l 2.64,-1.128926 c 7.7981,-3.334638 13.8248,-4.265316 15.8037,-2.440491 1.369,1.262402 1.7911,2.705891 1.9575,6.693469 0.1557,3.730086 -0.4247,37.295984 -0.7415,42.88 l -0.1724,3.04 0.6169,-1.635712 c 2.6068,-6.912054 9.3299,-12.170093 17.7951,-13.917203 3.5479,-0.732259 9.3345,-0.790435 12.5007,-0.125677 5.5052,1.155834 9.9896,4.612032 12.3132,9.489981 2.2788,4.783917 2.3303,5.41679 2.5408,31.221686 l 0.186,22.793075 0.8005,0.80013 c 0.9071,0.90672 2.4943,1.27479 6.9714,1.61664 l 2.972,0.22691 -0.092,2.69867 -0.092,2.69866 -15.76,0.0664 -15.7601,0.0664 10e-5,-2.74783 v -2.74783 l 3.5636,-0.38651 c 3.8691,-0.41963 5.0864,-0.86742 5.9534,-2.18998 0.5168,-0.78836 0.5714,-2.30325 0.6651,-18.45895 0.1483,-25.544135 -0.344,-29.313204 -4.2817,-32.779258 -2.5945,-2.283805 -4.307,-2.754023 -10.0604,-2.76241 -4.3176,-0.0063 -5.2708,0.08983 -7.36,0.742163 -3.4852,1.088263 -6.6051,2.834106 -8.663,4.847763 -4.0348,3.94809 -4.1418,4.682887 -4.119,28.278192 0.013,13.5334 0.1222,18.90994 0.4,19.72465 0.5417,1.58835 1.9007,2.14066 6.382,2.59366 l 3.76,0.38009 v 2.75313 2.75312 h -15.7067 c -8.6386,0 -15.7666,-0.06 -15.84,-0.13333 z m 110.9067,0.0842 c -14.484,-1.37984 -24.2263,-8.84786 -28.4622,-21.81798 -1.5663,-4.7962 -2.0662,-8.483754 -2.0675,-15.2529 0,-6.982899 0.4638,-10.205482 2.2401,-15.52 4.4732,-13.383325 15.1258,-21.909434 29.2173,-23.384899 6.1558,-0.644544 13.8662,0.521062 19.0775,2.884003 11.6776,5.294851 18.0944,17.345629 18.0686,33.932502 -0.017,11.151661 -2.9097,20.482484 -8.5227,27.494724 -6.6763,8.34057 -17.9074,12.77379 -29.5511,11.66455 z m 11.1619,-7.88442 c 9.776,-3.44143 14.5102,-13.168 14.5174,-29.82646 0.01,-18.118003 -5.0003,-27.887696 -15.7593,-30.742272 -2.8577,-0.758208 -8.7241,-0.760922 -11.52,-0.0053 -8.8036,2.379158 -14.1372,9.51191 -16.0528,21.467603 -0.6259,3.905879 -0.515,14.92384 0.1899,18.88 2.0937,11.749839 7.0786,18.344839 15.6119,20.654129 3.4644,0.93756 9.7186,0.73202 13.0129,-0.42768 z m 62.8316,7.73999 c -14.993,-1.74338 -24.995,-10.82956 -28.1933,-25.61176 -1.3912,-6.429637 -1.4711,-15.626876 -0.1895,-21.7934 3.0564,-14.705444 12.81,-24.875159 26.7093,-27.848714 3.911,-0.836714 11.0477,-0.894211 15.0628,-0.121354 14.6123,2.812762 23.4004,12.739728 25.5841,28.899773 0.5727,4.238061 0.2437,14.732698 -0.5803,18.509005 -2.6151,11.9852 -8.84,20.44675 -18.3493,24.94219 -5.9959,2.83451 -12.8203,3.8642 -20.0438,3.02426 z m 10.9358,-7.31859 c 3.4439,-0.8808 6.0694,-2.36839 8.5691,-4.85519 5.3118,-5.28439 8.0178,-15.41467 7.5094,-28.11267 -0.4561,-11.395011 -2.7205,-18.502259 -7.4008,-23.229581 -3.7322,-3.76968 -7.8902,-5.354915 -14.087,-5.370688 -10.6855,-0.0272 -17.8276,5.864455 -20.7891,17.149552 -1.1313,4.31112 -1.5056,7.727002 -1.5019,13.708064 0.01,10.158307 1.7147,17.633683 5.2316,22.891823 2.7597,4.12604 6.8369,6.95523 11.4594,7.9516 3.1506,0.67912 8.0663,0.61978 11.0093,-0.13291 z m 33.604,7.37881 c -0.073,-0.0733 -0.1333,-1.30986 -0.1333,-2.74783 v -2.6145 l 3.5441,-0.38438 c 4.3932,-0.4765 5.8498,-1.01659 6.4266,-2.38299 0.3515,-0.83278 0.4288,-8.40652 0.4265,-41.81697 0,-42.721139 -0.067,-44.902237 -1.3839,-46.72 -0.8343,-1.151985 -3.2217,-2.687288 -5.8054,-3.733189 l -2.24,-0.906811 v -1.779802 -1.779803 l 3.12,-1.318916 c 4.9751,-2.103115 8.4679,-3.02501 11.6564,-3.076577 2.6583,-0.04299 2.818,-0.0052 3.7526,0.88788 0.5369,0.513031 1.1595,1.449031 1.3836,2.08 0.323,0.909514 0.4074,11.137471 0.4074,49.362549 V 118.9906 l 0.6688,0.90466 c 1.0106,1.36701 2.0415,1.71766 6.2236,2.11673 l 3.8276,0.36525 v 2.73135 2.73134 h -15.8667 c -8.7267,0 -15.9267,-0.06 -16,-0.13333 z m 57.0202,-0.0355 c -3.388,-0.38766 -7.2648,-1.39571 -9.6373,-2.50592 -5.0105,-2.34471 -6.4419,-5.4001 -6.7882,-14.48985 l -0.1785,-4.68464 0.9253,-0.18324 c 0.5088,-0.10078 1.5732,-0.27114 2.3652,-0.37857 l 1.44,-0.19534 0.9345,2.763 c 1.9073,5.6393 4.9715,9.53203 8.9796,11.40766 5.0356,2.35643 12.4309,2.35756 17.037,0.003 3.5328,-1.80622 5.2358,-4.47434 5.461,-8.55601 0.3203,-5.8056 -2.1143,-8.12232 -15.6121,-14.856623 -3.96,-1.975715 -8.1957,-4.23512 -9.4128,-5.020903 -4.6709,-3.015817 -7.9274,-6.938054 -9.2325,-11.120016 -0.9297,-2.979036 -0.9881,-8.956038 -0.1159,-11.853289 2.0032,-6.654211 7.0395,-11.124349 14.8496,-13.180183 2.6097,-0.686963 4.0513,-0.844739 8.9381,-0.978233 6.3136,-0.172471 9.7448,0.160512 13.1432,1.275481 2.613,0.857274 4.7238,2.67768 5.2229,4.504349 0.3945,1.443594 0.2213,6.603635 -0.3692,10.996506 -0.5233,3.893286 -0.3331,3.6632 -2.9388,3.555577 l -2.2638,-0.0935 -0.7229,-2.72 c -1.9863,-7.47344 -3.4193,-9.194221 -8.6911,-10.436755 -2.8577,-0.673559 -8.0607,-0.444608 -10.9668,0.482569 -2.6958,0.860096 -4.9602,2.61688 -6.1838,4.797635 -0.784,1.397184 -0.9947,2.200877 -1.1131,4.245364 -0.1824,3.152118 0.4243,4.913305 2.4319,7.059657 2.004,2.142416 4.5007,3.628304 13.1142,7.804762 4.1333,2.004099 8.7554,4.46911 10.2714,5.477798 5.0013,3.327783 7.9479,6.897763 9.1855,11.128974 0.6928,2.3685 0.782,7.60011 0.1718,10.08 -1.8992,7.71891 -8.3063,13.30113 -17.4227,15.17968 -3.0839,0.63546 -9.4353,0.87891 -12.8217,0.49145 z M 189.41539,125.14461 c -0.71028,-0.71027 -0.93539,-1.23221 -0.93539,-2.16879 0,-2.40401 1.12387,-3.09478 5.57664,-3.42762 2.84181,-0.21242 4.46224,-0.87087 5.44271,-2.2116 0.65827,-0.90014 0.66098,-1.05194 0.7532,-42.079998 0.0509,-22.64713 0.008,-41.64768 -0.0958,-42.223444 -0.43026,-2.391517 -2.8688,-3.907916 -6.29847,-3.91668 -2.36074,-0.006 -3.74374,-0.369188 -4.57619,-1.201642 -1.08154,-1.081539 -1.09495,-2.898394 -0.0305,-4.136992 L 190.02318,22.88 195.5716,22.78523 c 11.22331,-0.1917 40.20919,0.500764 43.88165,1.04832 10.12032,1.508919 15.91457,4.971889 19.06422,11.393852 1.71105,3.488755 2.28254,6.358617 2.28254,11.462329 0,8.898928 -3.02932,14.940467 -9.70127,19.347808 -2.62913,1.736746 -5.90815,3.310272 -8.47808,4.068435 -1.63837,0.483338 -1.2997,0.764391 1.29896,1.077984 3.14482,0.379501 7.6312,1.736365 10.76174,3.254784 2.46368,1.19497 3.47012,1.923808 5.61813,4.068506 2.98174,2.977126 4.59291,5.733658 5.67928,9.716598 1.01684,3.727994 1.01556,12.188214 -0.003,16.256154 -2.7324,10.91846 -10.65744,17.55712 -24.21629,20.28554 -5.51234,1.10923 -10.22781,1.30775 -31.14461,1.31116 l -20.26453,0.003 z M 235.2,118.25527 c 10.58061,-1.60433 16.66476,-6.47707 18.39859,-14.73527 0.64005,-3.04854 0.62434,-9.789539 -0.0297,-12.736829 -1.49845,-6.752608 -5.71906,-11.272627 -12.44892,-13.332032 -4.24807,-1.299952 -7.82714,-1.656285 -18.48928,-1.8408 l -10.16929,-0.175981 0.0893,20.12282 c 0.0816,18.381522 0.13726,20.210512 0.64372,21.136172 0.53316,0.97446 1.49358,1.47765 3.44556,1.80524 2.17465,0.36495 15.71955,0.18738 18.56,-0.24332 z m -4.78136,-50.544963 c 5.79653,-0.902534 9.39154,-2.544614 12.65089,-5.778505 3.78812,-3.758535 5.0977,-7.350557 5.07927,-13.931802 -0.0163,-5.812694 -1.03704,-8.849027 -4.04358,-12.028 -2.71568,-2.87143 -7.41014,-4.746228 -13.86522,-5.537267 -3.86261,-0.473345 -15.24394,-0.466794 -16.28901,0.0094 -0.43952,0.200259 -0.9503,0.797747 -1.13506,1.327751 -0.2191,0.628514 -0.33593,7.196156 -0.33593,18.884729 V 68.57767 l 7.44,-0.195561 c 4.092,-0.107559 8.81639,-0.409869 10.49864,-0.671802 z m 111.66133,55.435163 3e-5,-2.77453 2.16,-0.20794 c 5.19222,-0.49985 7.20032,-1.1875 8.00298,-2.74052 0.31792,-0.61512 0.38243,-5.81304 0.30172,-24.30248 -0.11363,-26.023549 -0.0748,-25.508054 -2.22358,-29.539558 -1.09354,-2.051664 -2.52035,-3.298445 -4.88982,-4.272845 L 344.0024,58.72 v -1.640595 -1.640592 l 1.52867,-0.657619 c 3.42407,-1.472999 8.97114,-1.703376 12.36973,-0.513735 1.97216,0.690327 4.1705,2.824336 4.63584,4.500128 0.18819,0.677827 0.34518,2.888413 0.34886,4.912413 0.004,2.024 0.11642,3.852618 0.25053,4.063594 0.14957,0.235267 0.52128,-0.383405 0.96128,-1.6 2.25715,-6.24081 8.34525,-11.31977 16.06509,-13.402237 2.31443,-0.62433 3.50726,-0.734301 8,-0.737546 4.64608,-0.0034 5.56816,0.08613 7.68,0.745271 5.44528,1.699561 9.52221,4.983292 11.63133,9.36832 2.15353,4.477372 2.21805,5.315676 2.42441,31.497257 0.17184,21.800531 0.22311,23.433891 0.761,24.254281 0.85699,1.30708 2.59116,1.80742 7.98326,2.30334 l 2.16,0.19866 -6e-5,2.77453 -4e-5,2.77453 h -16.16 -16.16 l 7e-5,-2.7727 3e-5,-2.7727 2.48,-0.20723 c 5.53526,-0.46254 7.1497,-1.15064 7.7472,-3.30193 0.45488,-1.63781 0.44634,-38.882739 -0.01,-42.16127 -0.72749,-5.230496 -2.18678,-8.284554 -4.87008,-10.192317 -2.61517,-1.859322 -4.50214,-2.273277 -10.30746,-2.261219 -4.86953,0.01011 -5.25372,0.05801 -7.85414,0.979174 -6.3545,2.251024 -10.00144,6.175754 -11.4273,12.297754 -0.49708,2.134233 -0.55731,4.481881 -0.55788,21.752438 0,21.81655 -0.10224,20.88174 2.3743,21.87265 0.97453,0.38993 6.56976,1.16501 8.42502,1.16708 0.132,1.5e-4 0.24,1.26027 0.23997,2.80027 l -3e-5,2.8 h -16.31997 -16.32 v -2.77453 z m 198.08,-0.0255 c 3e-5,-1.72409 0.12784,-2.8 0.33264,-2.8 1.836,0 6.83782,-0.81519 7.91821,-1.2905 2.45718,-1.08102 2.3542,0.11797 2.23401,-26.01637 -0.10349,-22.505911 -0.12371,-23.155536 -0.79581,-25.547239 -1.27766,-4.546905 -2.84412,-6.623142 -6.03059,-7.993126 l -1.75085,-0.752768 0.0862,-1.76 0.0862,-1.76 2.24,-0.78736 c 1.88899,-0.663978 2.84173,-0.789341 6.08,-0.8 3.54976,-0.01168 3.98448,0.05501 5.75133,0.882307 2.30723,1.08033 2.90893,1.596989 3.8024,3.265053 0.58979,1.101126 0.708,1.973133 0.84592,6.24 l 0.16035,4.96 0.5856,-1.76 c 3.28352,-9.868675 13.28464,-15.782829 25.8144,-15.265341 4.61251,0.190499 6.90314,0.721949 10.17917,2.36168 3.94678,1.975462 6.97353,5.348982 8.54502,9.524 1.41031,3.746819 1.52643,5.789654 1.72627,30.36624 l 0.18954,23.306584 1.00634,0.89883 c 1.04595,0.93421 2.7206,1.3284 7.55366,1.77801 l 2.16,0.20094 -6e-5,2.77453 -4e-5,2.77453 h -16.16 -16.16 l 7e-5,-2.7727 3e-5,-2.7727 2.48,-0.20724 c 6.14454,-0.51345 7.53645,-1.27916 7.91261,-4.35292 0.11673,-0.95394 0.15341,-10.66244 0.0815,-21.574443 -0.11261,-17.079239 -0.20464,-20.143075 -0.66131,-22.018019 -0.82573,-3.390266 -1.73639,-5.182948 -3.44432,-6.780528 -2.89258,-2.70568 -5.9209,-3.52273 -12.17283,-3.284292 -5.02445,0.19162 -8.26669,1.068941 -11.34071,3.068682 -3.86256,2.512701 -5.99203,5.570579 -7.05731,10.134157 -0.54867,2.350384 -0.5976,4.145232 -0.5976,21.92 0,21.147183 -0.0298,20.797043 1.83805,21.692223 0.95843,0.45936 3.39174,0.89377 6.72195,1.20006 l 2.16,0.19866 -6e-5,2.77453 -4e-5,2.77453 h -16.16 -16.16 z M 688.32,123.23728 v -2.84273 l 2.16,-0.21468 c 5.4217,-0.53887 7.38614,-1.1848 8.05274,-2.64782 0.23952,-0.52572 0.34726,-7.99153 0.34726,-24.065192 0,-19.167268 -0.0843,-23.78641 -0.47498,-26.026663 -1.10908,-6.36 -3.07065,-8.238134 -8.12566,-7.780061 -5.28685,0.479082 -8.80899,1.572362 -9.92394,3.080404 -1.45958,1.97416 -3.45376,6.67279 -14.62534,34.459459 L 654.24758,125.76 h -3.88956 c -2.81405,0 -3.93322,-0.1106 -4.04749,-0.4 -6.15594,-15.5899 -23.94144,-59.491818 -24.63363,-60.805872 -1.78868,-3.395619 -3.58714,-4.502336 -7.9969,-4.920976 l -2.16,-0.205059 v -2.754048 l -3e-5,-2.754048 h 16.8 16.8 l 3e-5,2.8 v 2.8 h -1.68838 c -2.57764,0 -6.94074,0.617945 -7.913,1.120707 -1.91414,0.989846 -1.98,3.139082 -0.25465,8.312278 1.11536,3.344285 16.84454,43.077908 17.20761,43.468308 0.13367,0.14371 0.8601,-1.44029 1.61431,-3.52 0.75424,-2.07971 4.36227,-11.773293 8.01782,-21.541293 8.03424,-21.468071 8.77034,-24.003914 7.49613,-25.823139 -0.67725,-0.966877 -3.07702,-1.675501 -6.58803,-1.945367 L 660,59.36 l -0.0917,-2.747894 -0.0917,-2.747895 12.09168,-0.204851 c 6.65043,-0.112669 16.62771,-0.373517 22.17171,-0.579667 11.22445,-0.41737 11.97862,-0.341328 13.97187,1.408774 2.23453,1.961933 2.11648,0.08684 2.05917,32.711533 -0.0486,27.66838 -0.0173,29.5074 0.51862,30.56 0.7249,1.42352 1.9489,1.84318 6.75588,2.31628 2.72457,0.26816 4.63302,0.26241 7.68,-0.0232 6.51289,-0.61041 7.81584,-1.23493 8.20531,-3.93295 0.11117,-0.7701 0.15504,-21.056176 0.0975,-45.080176 -0.0829,-34.619348 -0.19033,-43.933618 -0.51779,-44.90265 -0.22723,-0.672457 -0.9088,-1.771261 -1.51456,-2.441788 -1.10723,-1.225551 -4.38304,-3.127634 -6.616,-3.841541 -1.19123,-0.380851 -1.2,-0.396288 -1.2,-2.112334 0,-1.704952 0.0182,-1.737977 1.32758,-2.405962 4.36093,-2.224777 10.94596,-4.129766 14.28832,-4.133483 2.61133,-0.0029 3.64884,0.55502 4.59133,2.469028 L 744.48,15.2 v 50.88 c 0,41.85396 0.0758,51.01307 0.42736,51.6301 0.75213,1.32008 2.85622,1.96474 7.728,2.36775 3.44406,0.2849 5.46381,0.28149 8.7232,-0.0147 7.27811,-0.66144 8.04998,-1.11185 8.39197,-4.89695 0.11757,-1.3014 0.16381,-21.51818 0.10275,-44.92618 -0.1025,-39.301197 -0.15334,-42.685912 -0.66397,-44.204417 -0.84617,-2.516378 -3.17197,-4.345781 -7.66931,-6.032469 L 760,19.433051 v -1.711919 -1.711919 l 1.84,-0.924634 c 4.31046,-2.166087 10.44614,-3.878724 13.90886,-3.882337 1.92519,-0.002 2.26087,0.09609 3.22474,0.942392 2.08371,1.829506 1.9751,-1.315755 1.85664,53.775366 -0.11734,54.55331 -0.20397,51.72886 1.62304,52.91503 0.7776,0.50486 3.37501,0.99616 7.06672,1.33668 l 2.16,0.19923 v 2.85453 2.85453 H 740 688.32 Z M 3.84,53.997126 C 3.84,53.908445 3.4155722,50.90208 2.8968267,47.316314 1.3197166,36.41472 0.02876728,23.21977 0.00309556,17.739132 6.416512e-4,17.21525 0.84570682,16.640556 4.08,14.966596 19.900764,6.7783072 39.972813,1.6433971 61.44,0.29253582 72.017117,-0.37304816 88.682205,0.3509345 99.68,1.9537988 c 7.58474,1.105432 18.4,3.5575426 18.4,4.1717769 0,0.1509334 -0.828,0.2745446 -1.84,0.2746918 -4.57756,6.72e-4 -14.97574,1.3286666 -22.8,2.9118983 C 82.907872,11.443332 69.907843,15.428762 59.68,19.661998 53.123424,22.37572 40.485158,28.629124 34.72,32.012182 25.510743,37.416278 15.379101,44.498163 8.1545491,50.581078 4.1720406,53.934266 3.84,54.197158 3.84,53.997126 Z M 698.72,42.141933 c -5.67706,-2.714192 -6.98992,-10.010679 -2.59248,-14.408112 1.7592,-1.759192 3.54864,-2.454902 6.2935,-2.446793 2.80186,0.0083 4.44132,0.636652 6.16916,2.364495 1.9855,1.985495 2.59875,3.502459 2.59875,6.428477 0,2.926656 -0.56467,4.321635 -2.5497,6.298774 -1.72349,1.716682 -3.15408,2.302333 -5.91923,2.423207 -2.00928,0.08783 -2.66048,-0.01962 -4,-0.660048 z"
      style="fill:#ffffff;stroke-width:0.32" />
</svg>
