<!--
   This SVG is NOT covered by any other licence in the project. It is
   copyrighted by Bentonville Schools. You can replace it with your own SVG
   logo. Do not include an XML Declaration. Be sure to set the id of the
   root SVG element to "logo"
-->
<svg
   xmlns="http://www.w3.org/2000/svg"
   version="1.1"
   id="logo"
   x="0px" y="0px"
   viewBox="0 0 1023 114">
   <metadata id="metadata91">
      <rdf:RDF>
         <cc:Work rdf:about="">
            <dc:format>image/svg+xml</dc:format>
            <dc:type rdf:resource="http://purl.org/dc/dcmitype/StillImage" />
            <dc:title>Bentonville Schools</dc:title>
         </cc:Work>
      </rdf:RDF>
   </metadata>
   <defs id="defs89">
      <linearGradient y2="37.0439" x2="93.379097" y1="58.852299" x1="63.392601" gradientUnits="userSpaceOnUse" id="SVGID_1_">
         <stop id="stop38" style="stop-color:#01405A" offset="0" />
         <stop id="stop40" style="stop-color:#006A86" offset="1" />
      </linearGradient>
      <linearGradient y2="38.187599" x2="84.4114" y1="70.5168" x1="87.094902" gradientUnits="userSpaceOnUse" id="SVGID_2_">
         <stop id="stop45" style="stop-color:#032E4A" offset="7.567567e-02" />
         <stop id="stop47" style="stop-color:#005871" offset="1" />
      </linearGradient>
      <linearGradient y2="79.946198" x2="146.9975" y1="79.946198" x1="48.859901" gradientUnits="userSpaceOnUse" id="SVGID_3_">
         <stop id="stop52" style="stop-color:#28909B" offset="0" />
         <stop id="stop54" style="stop-color:#A6DAD1" offset="0.773" />
      </linearGradient>
      <linearGradient y2="88.746201" x2="146.9975" y1="88.746201" x1="57.303799" gradientUnits="userSpaceOnUse" id="SVGID_4_">
         <stop id="stop59" style="stop-color:#1A8B99" offset="0" />
         <stop id="stop61" style="stop-color:#7CC8BE" offset="0.8973" />
      </linearGradient>
      <linearGradient y2="54.5457" x2="141.34509" y1="146.59891" x1="97.896004" gradientUnits="userSpaceOnUse" id="SVGID_5_">
         <stop id="stop66" style="stop-color:#042E4A" offset="0" />
         <stop id="stop68" style="stop-color:#00516A" offset="0.8973" />
      </linearGradient>
      <linearGradient y2="75.725098" x2="145.25349" y1="146.60229" x1="98.57" gradientUnits="userSpaceOnUse" id="SVGID_6_">
         <stop id="stop73" style="stop-color:#042E4A" offset="0.2973" />
         <stop id="stop75" style="stop-color:#00516A" offset="0.8973" />
      </linearGradient>
   </defs>
   <sodipodi:namedview fit-margin-right="1" inkscape:document-rotation="0" pagecolor="#ffffff" bordercolor="#666666" borderopacity="1" objecttolerance="10" gridtolerance="10" guidetolerance="10" inkscape:pageopacity="0" inkscape:pageshadow="2" inkscape:window-width="1920" inkscape:window-height="1017" id="namedview87" showgrid="false" fit-margin-top="1" fit-margin-left="1" fit-margin-bottom="1" inkscape:zoom="5.6568542" inkscape:cx="91.447456" inkscape:cy="53.56064" inkscape:window-x="-8" inkscape:window-y="-8" inkscape:window-maximized="1" inkscape:current-layer="g1048" />
   <style>
	.st0{fill:#1D2D33;}
	.st1{fill:url(#SVGID_1_);}
	.st2{fill:url(#SVGID_2_);}
	.st3{fill:url(#SVGID_3_);}
	.st4{fill:url(#SVGID_4_);}
	.st5{fill:url(#SVGID_5_);}
	.st6{fill:url(#SVGID_6_);}
   </style>
   <g transform="translate(-38.6,-32.974969)" id="g36">
      <path id="path4" d="m 594.9,49.2 c -0.3,-2.4 -0.3,-2.5 1.9,-3.3 2.8,-1 5.7,-2 8.6,-2.6 3.3,-0.7 5,0.6 5.1,4.1 0.2,4.5 0.1,9 0.1,13.5 0,3.2 -0.1,6.4 -0.1,9.6 0,17.1 0,34.3 0,51.4 0,0.5 0,1 0.1,1.5 0.2,1.7 0.9,2.7 2.6,3 4.8,0.9 9.6,0.8 14.4,0 2,-0.4 2.5,-1.1 2.7,-3.1 0,-0.5 0,-1 0,-1.5 0,-20.7 0,-41.4 0,-62.1 0,-1.2 -0.1,-2.4 -0.2,-3.5 -0.1,-2.3 -1.3,-3.8 -3.2,-4.9 -1.3,-0.7 -2.7,-1.3 -4.1,-1.9 0,-0.7 0,-1.5 0,-2.4 3.8,-1.9 7.6,-3.4 11.9,-3.7 2,-0.1 3.2,0.7 3.6,2.8 0.3,1.9 0.4,3.8 0.4,5.7 0,6.5 -0.1,13 -0.1,19.5 0,16.6 -0.1,33.3 -0.1,49.9 0,4.4 0.6,5.1 4.9,5.5 1.1,0.1 2.3,0.2 3.5,0.3 0,1.3 0,2.6 0,4 -26.3,0 -52.5,0 -78.8,0 0,-1.3 0,-2.6 0,-4 1.7,-0.2 3.4,-0.4 5,-0.7 2.1,-0.4 2.8,-1.1 3,-3.3 0,-0.5 0,-1 0,-1.5 0,-9.6 0.1,-19.3 0,-28.9 0,-2.8 -0.3,-5.6 -0.9,-8.4 -0.7,-3.4 -2.3,-4.4 -5.8,-4.1 -1.5,0.1 -3,0.5 -4.5,0.7 -2,0.3 -3.5,1.4 -4.3,3.3 -1.8,4.2 -3.6,8.5 -5.4,12.8 -4.5,11 -8.9,22 -13.3,33 -0.1,0.3 -0.2,0.5 -0.4,0.8 -1.9,0 -3.9,0 -5.8,0 -1.6,-3.9 -3.2,-7.9 -4.7,-11.8 -4.3,-10.8 -8.7,-21.6 -13,-32.4 -0.2,-0.5 -0.4,-0.9 -0.6,-1.4 -1.2,-3.3 -3.5,-5.2 -7.1,-5.1 -0.4,0 -0.8,-0.1 -1.3,-0.2 0,-1.3 0,-2.6 0,-3.9 8.5,0 16.9,0 25.4,0 0,1.3 0,2.6 0,3.9 -1.7,0.2 -3.4,0.3 -5.1,0.5 -2.9,0.3 -3.9,1.6 -3,4.4 1.5,4.5 3.1,8.9 4.8,13.2 2.9,7.4 5.8,14.7 8.8,22.1 0.1,0.3 0.3,0.6 0.5,1.1 0.2,-0.4 0.4,-0.6 0.5,-0.9 4,-10.7 7.9,-21.3 11.9,-32 0.5,-1.4 0.9,-2.9 1.1,-4.4 0.4,-1.9 -0.2,-2.9 -2.2,-3.3 -1.7,-0.4 -3.5,-0.5 -5.4,-0.8 0,-1.2 0,-2.5 0,-3.9 0.3,0 0.7,-0.1 1,-0.1 9.7,-0.2 19.4,-0.4 29,-0.6 1.2,0 2.4,-0.1 3.5,0 3,0.4 4.6,2 4.6,5 0,5 -0.2,10 -0.2,15 0,9.1 -0.1,18.2 0,27.2 0,3 0.9,3.7 3.7,4.1 3.8,0.5 7.6,0.4 11.4,-0.2 2.4,-0.4 2.9,-1.1 3.1,-3.5 0,-0.5 0,-1 0,-1.5 0,-20.4 0,-40.8 0,-61.2 0,-1.5 -0.1,-3 -0.2,-4.5 -0.1,-1.9 -1.2,-3.3 -2.8,-4.2 -1.5,-0.7 -3,-1.3 -4.5,-2.1 z" class="st0" />
      <path id="path6" d="m 224.5,88.8 c 1.8,0.3 3.5,0.5 5.1,1 2.2,0.7 4.4,1.4 6.4,2.4 3.9,2 6.5,5.3 7.6,9.6 1.3,5.1 1.2,10.2 -0.6,15.2 -2.4,6.6 -7.6,10.2 -14.1,12.2 -4.4,1.3 -8.9,1.8 -13.4,1.8 -9.4,0 -18.7,0 -28.1,0 -0.6,0 -1.2,0 -1.7,-0.3 -1,-0.4 -1.3,-1.3 -1.2,-2.3 0.2,-1.1 0.9,-1.7 2,-1.9 1.4,-0.2 2.8,-0.3 4.1,-0.5 1.8,-0.3 2.7,-1.3 2.9,-3.1 0.1,-1.1 0.2,-2.2 0.2,-3.3 0,-18.6 0,-37.3 0,-55.9 0,-1.2 -0.1,-2.4 -0.2,-3.5 -0.2,-1.6 -1.1,-2.7 -2.7,-3.1 -1.2,-0.3 -2.5,-0.3 -3.8,-0.4 -1.6,-0.1 -2.5,-0.9 -2.5,-2.2 0,-1.3 0.9,-2.3 2.5,-2.2 10.7,0.1 21.5,0.1 32.2,0.4 2.9,0.1 5.9,0.6 8.7,1.3 7.4,1.9 11.6,7.3 11.9,14.9 0.2,4.6 -0.5,9.1 -3.5,12.8 -2.6,3.2 -6.1,5.1 -9.9,6.5 -0.5,0.2 -0.9,0.3 -1.4,0.5 -0.1,-0.2 -0.2,-0.1 -0.5,0.1 z m -21.9,3.6 c 0,0.5 0,1 0,1.5 0,7.4 0,14.7 0,22.1 0,2.1 0,4.2 0.1,6.2 0.1,2.2 0.8,3.1 3,3.3 5.8,0.5 11.7,0.7 17.4,-0.7 5.6,-1.3 9.8,-4.4 11.1,-10.3 0.5,-2.2 0.6,-4.5 0.6,-6.7 -0.1,-7.3 -3.6,-12.1 -10.2,-14 -1.2,-0.4 -2.5,-0.7 -3.8,-0.8 -5.8,-0.3 -11.6,-0.5 -17.4,-0.7 -0.2,-0.1 -0.4,0 -0.8,0.1 z m 0,-5.5 c 0.2,0.1 0.3,0.2 0.4,0.2 5.2,0.1 10.4,0.3 15.5,-0.8 4.7,-1 8.6,-3.4 10.6,-8 1,-2.3 1.3,-4.7 1.2,-7.2 0,-6.8 -3.1,-10.8 -9.7,-12.5 -4.5,-1.2 -9,-1.2 -13.6,-1.2 -3.9,0 -4.4,0.5 -4.4,4.4 0,7.9 0,15.9 0,23.8 0,0.4 0,0.9 0,1.3 z" class="st0" />
      <path id="path8" d="m 832.7,89.4 c 3.7,-10.8 16.6,-13.7 24.6,-11.5 5.6,1.6 8.8,5.3 9.7,11 0.4,2.7 0.6,5.5 0.6,8.3 0.1,8.5 0,17.1 0,25.6 0,0.6 0,1.1 0.1,1.7 0.3,2.6 0.8,3.2 3.5,3.4 1.5,0.1 3.1,0.3 4.6,0.4 0,1.4 0,2.6 0,3.9 -8,0 -15.9,0 -23.8,0 0,-1.3 0,-2.5 0,-3.9 1.3,-0.1 2.6,-0.3 3.9,-0.4 3,-0.3 3.8,-1.1 3.8,-4.1 0,-9.2 0,-18.3 0,-27.5 0,-1.8 -0.4,-3.6 -0.8,-5.3 -0.7,-3.1 -2.6,-5.2 -5.7,-5.9 -5.8,-1.4 -11.2,-0.4 -16,3.1 -2.6,1.9 -3.7,4.6 -3.9,7.7 -0.1,1.1 -0.2,2.3 -0.2,3.4 0,7.7 0,15.4 0,23.1 0,0.3 0,0.7 0,1 0.1,3.5 0.7,4.2 4.2,4.5 1.3,0.1 2.6,0.3 3.9,0.4 0,1.3 0,2.6 0,3.9 -7.9,0 -15.8,0 -23.8,0 0,-1.3 0,-2.5 0,-3.9 1.2,-0.1 2.4,-0.3 3.6,-0.4 0.6,-0.1 1.3,-0.2 1.9,-0.3 1.6,-0.4 2.1,-1 2.3,-2.6 0.1,-1.1 0.1,-2.1 0.2,-3.2 0,-16.4 0,-32.8 0,-49.2 0,-4.1 -0.4,-8.2 -0.6,-12.2 -0.1,-1.8 -1.1,-3.1 -2.6,-3.9 -1.4,-0.7 -2.8,-1.3 -4.3,-2 0,-0.7 0,-1.5 0,-2.4 3.7,-1.8 7.5,-3.3 11.8,-3.6 1.8,-0.1 3,0.8 3.3,2.6 0.3,2 0.4,4.1 0.4,6.2 0,4.4 0,8.7 -0.1,13.1 -0.1,5.9 -0.3,11.8 -0.5,17.6 -0.1,0.6 -0.1,1 -0.1,1.4 z" class="st0" />
      <path id="path10" d="m 713.6,112.6 c 1.4,-0.1 2.6,-0.2 3.9,-0.3 0.3,0.9 0.7,1.8 1,2.7 2.2,7.3 7.5,10.6 14.7,11.6 3.8,0.5 7.5,0.4 11.1,-1 4.5,-1.7 7.5,-4.8 8.2,-9.7 0.6,-4.8 -0.4,-9.1 -4.6,-11.9 -3.5,-2.4 -7.3,-4.3 -11,-6.3 -3.6,-1.9 -7.4,-3.5 -10.9,-5.5 -4.7,-2.8 -8.4,-6.6 -9.7,-12.1 -1.8,-7.3 -1,-14.2 4.3,-20 3.3,-3.7 7.6,-5.6 12.3,-6.5 6.6,-1.3 13.2,-1 19.8,0.7 0.1,0 0.2,0 0.2,0.1 4.5,1.3 5.6,2.9 5.2,7.6 -0.2,2.8 -0.6,5.6 -0.9,8.4 0,0.3 -0.2,0.5 -0.2,0.8 -1.2,0 -2.3,0 -3.6,0 -0.2,-0.9 -0.3,-1.8 -0.5,-2.7 -1.1,-6 -4,-8.9 -10,-9.8 -4.1,-0.7 -8.2,-0.5 -12.2,1 -9.2,3.5 -10.4,15.8 -3.7,21.7 3,2.7 6.6,4.5 10.2,6.2 4.9,2.3 10,4.3 14.5,7.4 3.7,2.5 6.9,5.5 8.1,10 2.6,10 -0.5,21.1 -12.2,25.5 -9.4,3.6 -18.9,3.1 -28.2,-0.7 -3.1,-1.3 -4.8,-3.8 -5.2,-7 -0.4,-3.6 -0.4,-6.8 -0.6,-10.2 z" class="st0" />
      <path id="path12" d="m 454.3,130.9 c 0,-1.3 0,-2.6 0,-3.9 1.7,-0.2 3.3,-0.4 4.9,-0.7 2.2,-0.4 2.8,-1.1 3,-3.3 0.1,-0.5 0.1,-1.1 0.1,-1.6 0,-9.4 0.1,-18.8 0,-28.2 0,-2.6 -0.4,-5.2 -0.9,-7.8 -0.6,-2.8 -2.3,-4.7 -5,-5.7 -0.2,-0.1 -0.4,-0.2 -0.6,-0.3 -0.3,-2.3 -0.2,-2.5 1.9,-3.1 2.6,-0.8 5.2,-1 7.9,-0.3 2.9,0.8 4.4,2.6 4.4,5.7 0,0.9 0.1,1.9 0.1,2.8 0,0.9 0,1.8 0.3,2.7 0.1,-0.1 0.2,-0.3 0.3,-0.4 2.2,-7 7.2,-10.6 14.2,-12 3.9,-0.8 7.8,-0.8 11.6,0.6 5.8,2.1 8.9,6.4 9.3,12.5 0.3,5.5 0.3,10.9 0.3,16.4 0,5.6 0,11.1 0,16.7 0,0.3 0,0.6 0,0.9 0.1,3.4 0.9,4.3 4.3,4.7 1.4,0.1 2.8,0.2 4.2,0.4 0,1.3 0,2.6 0,4 -8.1,0 -16.2,0 -24.3,0 0,-1.3 0,-2.6 0,-4 1.4,-0.1 2.7,-0.2 4.1,-0.4 2.8,-0.3 3.7,-1.2 3.7,-3.9 0,-9.7 0,-19.4 -0.1,-29.1 0,-1.7 -0.4,-3.4 -0.8,-5.1 -0.8,-3.4 -3.1,-5.3 -6.4,-6.1 -4.2,-1 -8.3,-0.7 -12.2,1 -5.6,2.4 -7.8,7 -7.8,12.9 0,8.6 0,17.2 0,25.8 0,0.3 0,0.7 0,1 0.2,2.1 0.8,2.9 2.9,3.3 0.9,0.2 1.8,0.3 2.7,0.4 0.8,0.1 1.7,0.1 2.6,0.2 0,1.4 0,2.7 0,4 -8.5,-0.1 -16.5,-0.1 -24.7,-0.1 z" class="st0" />
      <path id="path14" d="m 303.7,79.5 c -0.2,-2.5 -0.1,-2.6 2,-3.2 2.5,-0.7 5.1,-0.9 7.6,-0.3 3.1,0.8 4.6,2.7 4.6,5.9 0,1.7 0,3.5 0,5.2 0.1,0 0.2,0 0.3,0.1 0.1,-0.1 0.2,-0.3 0.3,-0.4 2.2,-7 7.3,-10.6 14.2,-12 4,-0.8 8.1,-0.8 12,0.8 5.4,2.1 8.4,6.2 8.9,12 0.3,3.3 0.3,6.5 0.4,9.8 0,7.8 0,15.7 0,23.5 0,0.3 0,0.7 0,1 0,3.3 0.8,4.3 4.2,4.6 1.4,0.2 2.8,0.3 4.2,0.4 0,1.3 0,2.7 0,4 -8.1,0 -16.2,0 -24.3,0 0,-1.3 0,-2.6 0,-4 1.3,-0.1 2.6,-0.2 3.8,-0.4 3,-0.3 3.7,-1 4,-4 0,-0.5 0.1,-1 0.1,-1.5 0,-8.4 0.1,-16.8 0,-25.3 0,-2.4 -0.4,-4.8 -0.9,-7.1 -0.7,-3.3 -2.9,-5.4 -6.1,-6.2 -4.7,-1.2 -9.3,-0.8 -13.7,1.5 -4.8,2.5 -6.6,6.8 -6.7,11.9 -0.1,8.9 0,17.8 0,26.7 0,2.6 0.7,3.3 3.2,3.8 0.8,0.2 1.6,0.2 2.4,0.3 0.8,0.1 1.6,0.1 2.6,0.2 0,1.3 0,2.6 0,4 -8.1,0 -16.2,0 -24.4,0 0,-1.3 0,-2.6 0,-4 1.1,-0.1 2.2,-0.2 3.4,-0.4 0.4,0 0.8,-0.1 1.2,-0.2 2.7,-0.6 3.3,-1.1 3.4,-3.9 0.1,-2.3 0.1,-4.7 0.1,-7 0,-7.8 0,-15.7 -0.1,-23.5 0,-1.5 -0.2,-3 -0.4,-4.5 -0.6,-3.7 -2.2,-6.8 -6.3,-7.8 z" class="st0" />
      <path id="path16" d="m 936.4,104 c 0.3,-7 1.6,-13.7 5.9,-19.4 4.8,-6.5 11.5,-9.8 19.5,-10.3 3.7,-0.2 7.4,0.1 10.9,1.3 7.1,2.3 12,7 14.3,14 3.2,9.4 3.1,18.9 -0.9,28.1 -4.2,9.6 -11.9,14.4 -22.4,14.7 -4.9,0.2 -9.7,-0.6 -14.1,-2.9 -7,-3.7 -10.7,-9.7 -12.2,-17.3 -0.5,-2.7 -0.7,-5.5 -1,-8.2 z m 43.6,-0.5 c -0.2,-2.7 -0.4,-5.4 -0.7,-8 -0.1,-1.2 -0.4,-2.4 -0.7,-3.6 -2.5,-9.4 -9.2,-13.8 -18.7,-12.2 -6.1,1.1 -10,4.9 -11.9,10.6 -2.9,8.7 -2.7,17.6 0,26.4 1.1,3.6 3.3,6.7 6.6,8.7 8.7,5.2 19.6,1.3 23.2,-8.2 1.7,-4.5 2.1,-9.1 2.2,-13.7 z" class="st0" />
      <path id="path18" d="m 451.6,102.4 c -0.3,6.8 -1.5,13.3 -5.3,19.1 -4.4,6.8 -10.8,10.3 -18.8,10.9 -4.1,0.3 -8.2,0 -12.1,-1.3 -6.6,-2.2 -11.4,-6.4 -13.9,-12.8 -3.9,-10 -3.9,-20.2 0.8,-29.9 4.4,-9 12.2,-13.5 22.1,-14 4.9,-0.3 9.6,0.5 14,2.8 6.5,3.3 10.1,8.9 11.7,15.8 0.8,2.9 1.1,6.2 1.5,9.4 z m -9.4,1.1 c 0,-3 -0.2,-7.5 -1.4,-11.9 -2.5,-9.2 -9.2,-13.6 -18.6,-12 -6.5,1.1 -10.4,5.4 -12.3,11.4 -2.3,7.4 -2.2,15 -0.6,22.5 0.8,3.8 2.3,7.2 5.2,9.9 7.9,7.3 21.1,4.3 25.3,-5.7 1.7,-4 2.2,-8.3 2.4,-14.2 z" class="st0" />
      <path id="path20" d="m 905.4,132.4 c -4.6,0.1 -8.7,-0.6 -12.5,-2.4 -5.8,-2.7 -9.8,-7.1 -11.9,-13 -3.2,-9.4 -3.2,-18.9 1,-28.1 4.2,-9.1 11.7,-13.8 21.6,-14.6 3.6,-0.3 7.2,0 10.7,1.1 7.5,2.2 12.6,7.1 15.1,14.5 3,8.9 2.8,17.9 -0.5,26.6 -4,10.3 -12.7,15.9 -23.5,15.9 z m -17.2,-29.2 c 0,2.8 0.5,7.6 1.4,11.3 2.4,9.8 10,14.6 19.7,12.5 6.3,-1.3 9.7,-5.7 11.4,-11.6 2.2,-7.8 2.1,-15.7 0.2,-23.5 -0.9,-3.9 -2.7,-7.5 -6.1,-9.9 -8.4,-5.9 -20.2,-2.3 -24.2,7.4 -2,4.4 -2.4,10.3 -2.4,13.8 z" class="st0" />
      <path id="path22" d="m 657.2,101 c 0,5.4 0.7,10.5 3.3,15.2 2.3,4.2 5.9,6.9 10.5,8.2 2.7,0.7 5.5,0.8 8.3,0.6 4.2,-0.3 8.2,-1.1 11.8,-3.2 0.1,-0.1 1.5,-0.8 2.1,-0.2 0.4,0.4 -0.1,1.2 -0.4,1.6 -3,4.2 -7,7.2 -12.1,8.5 -6.2,1.6 -12.3,1.1 -18.2,-1.6 -5.7,-2.6 -9.5,-7 -11.5,-12.9 -3.1,-9.1 -3.3,-18.2 0.2,-27.2 6,-15.4 21.8,-18.3 32.1,-14 4.4,1.8 7.3,5 9,9.4 1.6,4 2.1,8.2 1.5,12.5 -0.3,2.4 -1.1,3.1 -3.5,3.1 -9.1,0 -18.1,0 -27.2,0 -1.6,0 -3.1,0 -4.7,0 -0.2,-0.1 -0.6,0 -1.2,0 z m 28.3,-4.9 c 0.3,-3.7 0.1,-7.1 -1.3,-10.4 -1.4,-3.4 -4,-5.5 -7.6,-5.9 -2.1,-0.3 -4.3,-0.3 -6.3,0 -7.3,1 -13.3,9.1 -12.3,16.4 9,-0.1 18.2,-0.1 27.5,-0.1 z" class="st0" />
      <path id="path24" d="m 259,100.9 c 0,3.9 0.4,7.5 1.5,11 2.8,8.7 9.4,13.4 18.6,13.1 4.9,-0.1 9.7,-0.9 14,-3.4 0.4,-0.2 0.8,-0.3 1.3,-0.3 0.5,-0.1 0.8,0.4 0.7,0.8 -0.2,0.4 -0.3,0.9 -0.6,1.2 -4,5.2 -9.2,8.3 -15.7,8.9 -3.4,0.3 -6.9,0.1 -10.2,-0.8 -7.3,-1.9 -12.5,-6.4 -15.2,-13.4 -3.8,-10 -3.9,-20.2 0.6,-30 5.7,-12.3 18.6,-16.1 29.5,-12.9 4.7,1.4 8.1,4.3 10.2,8.8 2.2,4.6 2.8,9.5 1.9,14.6 -0.3,1.6 -1.2,2.3 -2.9,2.3 -10.7,0 -21.4,0 -32.1,0 -0.6,0.1 -1,0.1 -1.6,0.1 z m 28.2,-4.8 c 0.3,-3.2 0.1,-6.2 -0.7,-9.1 -1.2,-3.9 -3.7,-6.4 -7.7,-7.3 -3.1,-0.7 -6.3,-0.5 -9.3,0.6 -5.3,1.9 -7.9,6 -9.2,11.2 -0.4,1.5 -0.5,3 -0.8,4.6 z" class="st0" />
      <path id="path26" d="m 1027.5,115.4 c 0.7,1.6 1.2,3.1 1.9,4.6 2.5,5.5 7,7.6 12.7,7.5 1.9,-0.1 3.8,-0.4 5.6,-1 5.8,-2.1 7,-10 2,-13.3 -2.6,-1.7 -5.4,-3.2 -8.1,-4.7 -2.8,-1.6 -5.8,-2.9 -8.5,-4.5 -7.6,-4.7 -8.5,-12.4 -6.1,-18.8 1.5,-4.1 4.7,-6.5 8.7,-7.8 6.1,-2 12.3,-2.1 18.5,-0.5 0.4,0.1 0.7,0.2 1,0.4 2.6,1 3.7,2.5 3.5,5.3 -0.2,2.9 -0.5,5.8 -0.8,8.7 -1.2,0 -2.3,0 -3.5,0 -0.4,-1.5 -0.8,-3 -1.3,-4.4 -1.3,-4 -3.3,-5.5 -7.5,-5.8 -2.5,-0.2 -5,-0.1 -7.4,0.7 -3.1,1.1 -5,3.2 -5.4,6.5 -0.4,3.1 0.7,5.6 3.3,7.2 3,1.9 6.2,3.4 9.3,5.1 3.2,1.8 6.5,3.4 9.5,5.6 7.8,5.6 6.5,17.2 0.1,22.3 -3.3,2.6 -7,3.8 -11.1,4.2 -4,0.3 -7.9,0.1 -11.8,-0.9 -4.5,-1.2 -7.3,-3.8 -7.6,-8.5 -0.2,-2.3 -0.2,-4.6 -0.3,-7 1.2,-0.6 2.3,-0.8 3.3,-0.9 z" class="st0" />
      <path id="path28" d="m 808.9,91.6 c -1.3,0 -2.4,0 -3.5,0 -0.2,-0.9 -0.4,-1.9 -0.7,-2.7 -1.8,-6.1 -4.8,-8.1 -11.5,-7.8 -9,0.4 -13.3,6.2 -15.1,12.6 -1.8,6.7 -2.1,13.4 0.4,20 3.3,8.7 10.9,12.9 20,11.3 4.2,-0.7 8,-2.5 11.2,-5 1,0.9 2,1.7 3,2.6 -3.4,4.3 -7.4,7.6 -12.7,9 -8,2 -15.6,1.4 -22.3,-3.9 -4.9,-3.8 -7.3,-9.1 -8.4,-15.1 -1.4,-7.6 -1.1,-15.1 2.3,-22.2 4,-8.4 10.8,-13.1 20,-14.3 4.8,-0.6 9.6,-0.3 14.3,1.3 3.7,1.3 4.8,3 4.4,7 -0.4,2.3 -1,4.7 -1.4,7.2 z" class="st0" />
      <path id="path30" d="m 1017.3,128.6 c 0,1.2 0,2.4 0,3.7 -8,0 -15.9,0 -24,0 0,-1.2 0,-2.5 0,-3.9 1.5,-0.2 3.1,-0.3 4.6,-0.6 2.7,-0.5 3.2,-1.1 3.2,-3.8 0,-15.5 0.1,-30.9 0,-46.4 0,-5.1 -0.3,-10.2 -0.2,-15.3 0.1,-3.7 -1.7,-5.8 -5,-7 -0.7,-0.2 -1.4,-0.5 -2.1,-0.8 0,-0.8 0,-1.6 0,-2.5 3.7,-1.8 7.5,-3.3 11.8,-3.6 1.7,-0.1 2.8,0.8 3.2,2.5 0.3,1.4 0.5,2.9 0.5,4.4 0,6.3 -0.1,12.7 -0.2,19 0,16.1 0,32.3 -0.1,48.4 0,0.4 0,0.7 0,1.1 0.1,2.8 0.9,3.7 3.7,4.1 1.4,0.2 2.8,0.3 4.1,0.4 0.3,0.1 0.4,0.2 0.5,0.3 z" class="st0" />
      <path id="path32" d="m 374.6,62.1 c 1.6,0 3.1,0 4.9,0 0,4.7 0,9.4 0,14.3 4.8,0 9.4,0 14,0 0,2.1 0,4.1 0,6.1 -4.6,0 -9.1,0 -13.9,0 0,0.6 0,1 0,1.4 0,10.8 0,21.5 0,32.3 0,1.3 0.1,2.5 0.3,3.8 0.6,4 2.7,5.9 6.8,6 2.8,0.1 5.4,-0.5 8.1,-1.8 0.6,1.1 1.1,2.1 1.7,3.2 -1.9,1.9 -4,3.1 -6.5,4 -3.1,1.1 -6.4,1.4 -9.7,0.8 -4.8,-0.8 -7.5,-3.5 -8.3,-8.4 -0.3,-2.3 -0.5,-4.6 -0.5,-6.8 0,-9 0,-17.9 0.1,-26.9 0,-2.4 0,-4.9 0,-7.5 -2.8,0 -5.7,0 -8.6,0 0,-1.3 0,-2.5 0,-3.7 0.5,-0.1 0.9,-0.3 1.4,-0.4 5.3,-1.3 8.4,-4.6 9.2,-10 0.3,-2.1 0.6,-4.3 1,-6.4 z" class="st0" />
      <path id="path34" d="m 585.1,60.7 c 0,3.8 -3,6.7 -6.8,6.7 -3.7,0 -6.6,-3 -6.6,-6.8 0,-3.8 3,-6.7 6.8,-6.7 3.7,0 6.6,3 6.6,6.8 z" class="st0" />
   </g>
   <g transform="translate(-38.6,-32.974969)" id="g1048">
      <path class="st2" d="m 130.1,38.7 c -31,2.1 -60,13.6 -87.4,36.8 -1.2,-7.7 -1.9,-13.6 -2.4,-18 0,0 20.5,-33.675 89.8,-18.8 z" id="path50" style="fill:url(#SVGID_2_)" sodipodi:nodetypes="cccc" />
      <path class="st1" d="M 130.1,38.7 C 82.3,29.6 40.3,57.5 40.3,57.5 c -0.7,-6.8 -0.7,-9.8 -0.7,-9.8 0,0 36.9,-23.5 90.5,-9 z" id="path43" style="fill:url(#SVGID_1_)" />
      <path class="st4" d="m 147,43.2 c -31.3,18.2 -60.1,45.5 -73.6,91.2 0,0 -8.5,-5.8 -16.1,-17.5 C 48.9,99.3 85.275,44.65 147,43.2 Z" id="path64" style="fill:url(#SVGID_4_)" sodipodi:nodetypes="cccc" />
      <path class="st3" d="M 147,43.2 C 91.4,53.9 62.7,106 57.3,116.9 54.1,112 51.1,106.2 48.9,99.3 74.1,59.7 118.2,41.3 147,43.2 Z" id="path57" style="fill:url(#SVGID_3_)" />
      <path class="st6" d="m 144.4,73.3 c -5.1,34.9 -22,62.6 -48.5,72.7 0,0 6.175,-55.125 48.5,-72.7 z" id="path78" style="fill:url(#SVGID_6_)" sodipodi:nodetypes="ccc" />
      <path class="st5" d="m 146,52 c -0.1,7.3 -0.6,14.4 -1.6,21.3 -37.7,27.2 -48.5,72.7 -48.5,72.7 0,0 0.7,-9.1 3.8,-20.9 C 106.9,97.3 120.1,69.4 146,52 Z" id="path71" style="fill:url(#SVGID_5_)" />
   </g>
</svg>
